<svg width="9" height="8" viewBox="0 0 9 8" fill="none" xmlns="http://www.w3.org/2000/svg">
<path d="M8.37515 0.340484C8.31187 0.232552 8.23669 0.146923 8.15394 0.0884982C8.07118 0.0300734 7.98247 1.20483e-08 7.89287 1.38666e-08C7.80328 1.56849e-08 7.71457 0.0300734 7.63181 0.0884982C7.54906 0.146923 7.47388 0.232552 7.4106 0.340484L4.75635 4.85786L2.10211 0.340485C1.9742 0.122792 1.80072 0.000493127 1.61983 0.00049313C1.43894 0.000493134 1.26546 0.122792 1.13755 0.340485C1.00964 0.558177 0.937786 0.853432 0.937786 1.1613C0.937786 1.46916 1.00964 1.76441 1.13755 1.98211L4.27749 7.32611C4.34078 7.43404 4.41595 7.51967 4.49871 7.5781C4.58147 7.63652 4.67018 7.6666 4.75977 7.6666C4.84937 7.6666 4.93808 7.63652 5.02084 7.5781C5.10359 7.51967 5.17876 7.43404 5.24205 7.32611L8.38199 1.98211C8.64195 1.53968 8.64195 0.79455 8.37515 0.340484Z" fill="#898989"/>
</svg>
